<svg version="1.2" xmlns="http://www.w3.org/2000/svg" viewBox="0 0 1423 988" width="1423" height="988">
	<title>11-svg</title>
	<style>
		.s0 { fill: #ffffff;stroke: #000000;stroke-width: 10 } 
		.s1 { fill: #ffffff;stroke: #000000;stroke-width: 5 } 
		.s2 { fill: #ffffff;stroke: #000000;stroke-width: 3 } 
	</style>
	<g id="Layer">
		<path id="Layer" class="s0" d="m1342.4 78c29.1 5.8 71.2 19 74.8 48.5 3.5 29.3-3.6 55.1-24.3 76.8-214 226.9-496.2 523.4-670.7 711.1-85.2 72.5-160.3 82.9-272.8 50.5-91.4-33.7-189.1-73.5-278.8-117.2-30.7-15.5-61.4-29.4-86.8-54.5-77.1-100.6-12-161.4 44.4-208.1 191.1-158.1 449.9-367.7 670.8-545.5 34.6-27.8 85.4-39.5 129.3-32.3 134.9 21.9 280.1 44 414.1 70.7z"/>
		<g id="Layer">
			<path id="Layer" class="s1" d="m116.9 606.3c209.3-173.5 467.8-375.2 696-562.6 29.3-24.1 72.6-34 110.1-28.3 137 20.7 272.8 45 408.1 70.7 22 4.2 75.5 17.5 39.4 54.5-224.4 230.4-447.4 454.4-676.8 684.9-52.1 52.4-145.4 77.9-215.2 53.6-138-48.3-256.9-95.9-377.8-148.5-39.1-17.1-44.2-70.4 16.2-124.3z"/>
			<path id="Layer" class="s1" d="m799.6 83.6l500 98.6-600 598.6-518.6-185.7c0 0 618.6-511.5 618.6-511.5z"/>
			<path id="Layer" class="s1" d="m307.1 703.6c12.9-10.4 23.9-12.7 41.5-7.1 25.2 8.1 52.3 19.3 77.1 27.2 17 5.3 23.3 14.1 11.9 26.5-9.9 10.6-18.4 17.4-30 27.1-18.4 15.3-34.3 15.3-50.5 9.2-24.3-9.1-48.6-19.6-72.8-28.6-28-10.3-15.6-18.7-2.3-31.3 7.1-6.7 17.1-16.4 25.1-23z"/>
		</g>
		<g id="Layer">
			<path id="Layer" class="s2" d="m306.8 537.6c17.9 5.8 37.8 12.1 52.7 17.8 3.2 1.3 0.4 4.2-1.1 5.6-13.8 13.2-28 24.8-43.8 38-2.9 2.5-7.7 3-11.4 1.8-16.1-5.2-32.4-11.1-49.3-17.9-1.6-0.6-1.2-4.1 0-5.3 11.9-11.6 28-25.4 41.5-36.8 3-2.6 7.6-4.5 11.4-3.2z"/>
			<path id="Layer" class="s2" d="m370.2 617.4c12.5-10.6 31.7-28.5 46.2-39.6 2.4-1.8 6-1.8 8.9-1 17.5 4.5 34.9 11.1 50.2 16.1 1.8 0.6 3.4 4 2 5.3-14.6 14.4-31.2 28.2-45.2 40.4-2.4 2.2-6.2 3.8-9.3 2.8-17.4-5.8-34.1-11.3-52-18.4-1.8-0.7-2.2-4.4-0.8-5.6z"/>
			<path id="Layer" class="s2" d="m532.9 619.7c3.6-3 9.6-1.8 14.1-0.5 17.1 4.8 35.9 11.7 51.3 16.9 2.3 0.8 4.9 4.7 3.2 6.6-11.6 13.3-26.3 27.4-40.9 41.1-2.1 2.1-5.9 2.7-8.8 1.8-20.6-6.8-40.7-13.7-61.4-21.2-2.3-0.9-1.9-5.6-0.2-7.3 11.8-11.8 28.9-26.4 42.7-37.4z"/>
			<path id="Layer" class="s2" d="m663.4 658.8c2.7-2.5 7.4-2.8 10.9-1.7 20.9 6.5 43.5 14 60.6 20.2 2.1 0.7 2.8 4.9 1.2 6.5-13.8 14.6-29.5 29.3-43.4 42.7-3.8 3.7-10.7 3.3-15.6 1.5-17.8-6.2-38.5-12.8-55.6-19.9-2.5-1-2.1-6.1-0.3-8.1 13.4-14.4 28.5-28.3 42.2-41.2z"/>
		</g>
	</g>
</svg>