<svg version="1.2" xmlns="http://www.w3.org/2000/svg" viewBox="0 0 1066 1601" width="1066" height="1601">
	<title>2-svg</title>
	<style>
		.s0 { fill: #000000 } 
		.s1 { fill: #ffffff } 
	</style>
	<path id="Layer" class="s0" d="m554.4 1c431.6 7.1 652.5 502.1 411.8 828.2-56.3 75.7-134.8 130.6-175.2 219.9-14.8 31-23.5 64.8-42.1 94 21.9 28 24 71.2 1.7 99.6 17.3 28.5 17.6 68.7-4.8 94.7 20.3 31.7 18.9 77-8.3 100.9 6.5 41.3-26.5 100.4-96.4 99.2-1.8 7-2.6 35.6-28.5 52.4-11.3 7.6-25.2 10.8-38.7 10.6-87.6-2.1-98.1 4.7-120.8-10.6-26-16.8-26.8-45.4-28.6-52.4-74.7 1.2-102.2-61.9-96.3-99.2-27-23.7-28.9-68.9-8.4-100.9-22.4-26-22.1-66.2-4.7-94.7-22.4-28.4-20.2-71.6 1.6-99.6-40.2-63.2-19.2-99.6-139.2-225.7-55.8-58.7-147.6-148.8-171.5-316-43.3-296.9 173.9-595 505.2-600.4 7.2-0.8 14.4-0.5 21.6-0.2 7.2-0.3 14.4-0.6 21.6 0.2z"/>
	<path id="Layer" class="s1" d="m452.2 273.6c48.7 52.9 44.3 124.1-12.2 172 46.6 39.1 63 107.4 29.4 160.5-21.6-8.8-47.2-9.9-68.4 0.6-15.4-10.7-34.8-15.5-53.3-11.3-14-51.8-57.9-76.2-110.5-64.4 0-13-2.9-25.9-9.5-37.2 20.8-1.9 41.2-10.4 56-25.2 22 26.5 58.1 34.1 89.7 13.9 8.2 17.1 22.4 31.5 40.2 38.8 2.9-7.2 5.7-14.4 8.7-21.6-36.5-15.6-47.9-72.3-8.5-99.4-4.5-6.4-8.9-12.9-13.3-19.3-24.9 16.6-38.2 47.8-34 77.4-24.7 20.1-53.1 13.8-68.2-9.1 7.3-14.3 9.8-31.2 5.2-46.7 34-20.8 37.1-62 22.5-93.2 47.1-1.2 78.7-30.8 80.2-77 22.4-7 40-26.3 45.1-49.2-7.4-1.9-14.8-3.7-22.3-5.2-9.1 40.4-58.7 44.7-86.4 13.1-6 5.1-11.8 10.3-17.5 15.5 14.6 16.7 35.5 28.2 57.9 29.3-12.1 102.8-178.4 29.8-144.8-52.7 9.4-25.1 38.8-44.5 72.1-30.8 110.8-163.9 227.4 6.4 141.9 121.2zm-238-43c16 41.6 43.5 61.5 79.9 74.5 32.6 25.8 18.5 85-26 83 25.2 28.9 17 54.4-9.6 70.4-57.8 34-73.3-18.6-142 17.4-43.3-52 3-129.5 66.9-128.3-33.6-35.8-34.6-110.4 30.8-117zm-7.5 335.3c56.6-25 104.9-20.1 119.6 39.7-17.3 12.8-26.8 34.8-23.8 56.2-62.9 42.1-43.5 132.4 37.9 140.6 4.1 29.9 26.5 54.9 54.3 65.6 3.2-7.1 5.6-14.4 8.4-21.6-50.7-20.8-57.5-88.2 3-104.4-1.7-7.5-3.4-15-5.1-22.6-29.8 6.6-52.8 26.3-60.3 59.5-64-8-70.7-74.2-11.5-105.1-14-59.6 33.1-71.6 70.3-36.8 66.8-56 146.2 56.8 67.8 140.4 92.5 100.1-11.6 223-100.4 132.3-67.8 27.3-109-12-99.9-80.9-70.8 20.2-114.1-35.7-93.3-105.4-66.1-20.8-90.5-79.3-87.5-143.3 9-132 166.6-117.9 120.5-14.2z"/>
	<path id="Layer" class="s1" d="m755.4 152.4c33.1-13.7 62.6 5.6 72.1 30.8 33.6 82.6-132.8 155.4-144.9 52.7 22.5-1.1 43.3-12.6 57.9-29.3-5.7-5.2-11.5-10.4-17.4-15.5-27.7 31.6-77.4 27.3-86.4-13.1-7.5 1.5-15 3.3-22.4 5.2 5.1 22.9 22.8 42.2 45.2 49.2 1.5 46.2 33.1 75.8 80.1 77-14.5 30.9-11.7 72.2 22.5 93.2-4.5 15.5-2.1 32.4 5.3 46.7-15.1 22.9-43.5 29.2-68.3 9.1 4.2-29.5-9-60.8-34-77.4-4.4 6.4-8.8 12.9-13.2 19.3 39.3 27.1 27.9 83.8-8.5 99.4 3 7.2 5.8 14.4 8.7 21.6 17.7-7.3 31.9-21.7 40.1-38.8 31.2 19.9 67.5 13 89.7-13.9 14.9 14.8 35.3 23.3 56 25.2-6.5 11.3-9.4 24.2-9.4 37.2-52.6-11.8-96.5 12.6-110.6 64.4-18.5-4.2-37.9 0.6-53.3 11.3-21.2-10.5-46.8-9.4-68.4-0.6-33.6-53.2-17.1-121.5 29.4-160.5-56.4-47.9-60.9-119.1-12.2-172-75.9-102 5.3-223.7 84.1-180.3 24.6 13.6 42.4 36.2 57.9 59.1zm126.9 195.2c63.9-1.2 110.1 76.2 66.8 128.3-15.7-8.3-37.6-20.6-78.8-8.4-46.8 14-119.1-26.4-72.7-79.4-44.5 2-58.6-57.2-26.1-83 35.1-12.6 63.4-31.6 79.9-74.5 64.8 6.5 64.8 80.8 30.9 117zm9.6 375.8c20.8 69.6-22.3 125.7-93.3 105.4 9.1 68.9-32.5 108-99.8 80.9-89.4 91.3-192.4-32.8-100.4-132.3-78.6-83.7 0.9-196.5 67.7-140.4 36.8-34.4 84.5-23.3 70.3 36.8 59 30.8 52.8 97-11.5 105.1-7.4-32.9-30.2-52.8-60.3-59.5-1.7 7.6-3.3 15.1-5.1 22.6 60.4 16.2 53.8 83.6 3 104.4 2.8 7.1 5.3 14.5 8.4 21.6 27.8-10.7 50.2-35.7 54.3-65.6 81.5-8.3 100.8-98.5 38-140.6 2.9-21.4-6.5-43.4-23.9-56.2 14.8-60 63.1-64.6 119.6-39.7-37.2-83.8 52-98.7 90.1-61.3 48.1 46 48.5 185.5-57.1 218.8z"/>
</svg>