<?xml version='1.0' encoding='utf-8'?>
<svg xmlns="http://www.w3.org/2000/svg" width="199.64mm" height="199.64mm" clip-rule="evenodd" fill-rule="evenodd" image-rendering="optimizeQuality" shape-rendering="geometricPrecision" text-rendering="geometricPrecision" version="1.1" viewBox="0 0 19964 19964">
 <defs>
  <style type="text/css">
   
    .str0 {stroke:black;stroke-width:282.2}
    .fil1 {fill:#FEFEFE}
    .fil0 {fill:black}
   
  </style>
 </defs>
  <path class="fil0 str0" d="m11067 17815c3482-482 6254-3249 6742-6736l2014-5v-2184l-2013-4c-488-3482-3254-6247-6735-6729l-1-2016h-2184l-3 2016c-3475 483-6236 3239-6734 6721l-2012 12v2184h2003c493 3480 3258 6248 6742 6746l4 2003h2184l-7-2008zm-6641-8926c444-2263 2103-4049 4462-4473l2 4476-4464-3zm6626 2l4484 2c-466-2246-2332-4026-4496-4464l12 4462zm3 6649c2253-429 4041-2210 4487-4464l-4485-2-2 4466zm-2167 4c-2247-447-4023-2224-4464-4470h4466l-2 4470z"/>
  <path class="fil1" d="m9229 500h1506v1992c3547 355 6382 3190 6738 6737h1991v1506h-1991c-355 3548-3190 6383-6738 6738v1991h-1506v-1991c-3548-355-6383-3190-6738-6738h-1991v-1506h1992c355-3547 3190-6382 6737-6737v-1992zm-5222 8729h5222v-5222c-2717 342-4880 2505-5222 5222zm6728 0h5222c-341-2717-2505-4880-5222-5222v5222zm5222 1506h-5222v5223c2717-341 4881-2505 5222-5223zm-6728 0h-5222c341 2718 2505 4882 5222 5223v-5223z"/>
</svg>