<?xml version="1.0" encoding="UTF-8"?>
<svg viewBox="0 0 550 550" xmlns="http://www.w3.org/2000/svg" xmlns:xlink="http://www.w3.org/1999/xlink">
 <defs>
  <filter id="r">
   <feGaussianBlur stdDeviation="2.1804"/>
  </filter>
  <filter id="a">
   <feGaussianBlur stdDeviation="1.022"/>
  </filter>
  <linearGradient id="c">
   <stop stop-color="#333" offset="0"/>
   <stop stop-color="#fff" offset="1"/>
  </linearGradient>
  <linearGradient id="b">
   <stop stop-color="#333" offset="0"/>
   <stop stop-color="#333" stop-opacity="0" offset="1"/>
  </linearGradient>
  <linearGradient id="d">
   <stop stop-color="#fff" offset="0"/>
   <stop stop-color="#333" offset="1"/>
  </linearGradient>
  <linearGradient id="q" x1="-13.554" x2="467.82" gradientUnits="userSpaceOnUse">
   <stop stop-color="#333" offset="0"/>
   <stop stop-color="#666" stop-opacity="0" offset="1"/>
  </linearGradient>
  <linearGradient id="p" x1="374.77" x2="446.99" y1="101.5" y2="169.43" gradientUnits="userSpaceOnUse">
   <stop stop-color="#1a1a1a" offset="0"/>
   <stop stop-color="#fff" offset="1"/>
  </linearGradient>
  <linearGradient id="o" x1="350.64" x2="324.32" y1="40.381" y2="198.97" gradientUnits="userSpaceOnUse">
   <stop stop-color="#333" offset="0"/>
   <stop stop-color="#fff" offset=".25"/>
   <stop stop-color="#1a1a1a" offset=".4974"/>
   <stop stop-color="#fff" offset="1"/>
  </linearGradient>
  <linearGradient id="i" x1="129.86" x2="199.79" y1="324.73" y2="312.77" gradientUnits="userSpaceOnUse">
   <stop stop-color="#fff" offset="0"/>
   <stop stop-color="#1a1a1a" offset="1"/>
  </linearGradient>
  <linearGradient id="n" x1="191.93" x2="155.31" y1="107.56" y2="200.48" gradientUnits="userSpaceOnUse" xlink:href="#c"/>
  <linearGradient id="m" x1="386.21" x2="323.71" gradientUnits="userSpaceOnUse" xlink:href="#b"/>
  <linearGradient id="l" x2="0" y1="322.5" y2="378.04" gradientUnits="userSpaceOnUse" xlink:href="#b"/>
  <linearGradient id="k" x1="443.61" x2="341.04" y1="340.09" y2="438.84" gradientUnits="userSpaceOnUse" xlink:href="#b"/>
  <linearGradient id="j" x1="45.462" x2="77.777" y1="355.55" y2="335.09" gradientUnits="userSpaceOnUse" xlink:href="#d"/>
  <linearGradient id="h" x1="155.75" x2="374.07" gradientUnits="userSpaceOnUse" xlink:href="#d"/>
  <linearGradient id="g" x1="342.32" x2="357.46" y1="441.79" y2="480.3" gradientUnits="userSpaceOnUse" xlink:href="#b"/>
  <linearGradient id="f" x1="501.04" x2="455.32" y1="365.68" y2="347.23" gradientUnits="userSpaceOnUse" xlink:href="#b"/>
  <linearGradient id="e" x2="0" y1="167.91" y2="351.26" gradientUnits="userSpaceOnUse" xlink:href="#c"/>
 </defs>
 <g transform="translate(66.982 -276.29)">
  <path d="m225.22 323.61c-29.315 0.0754-59.918 5.489-92.188 17.875 9.0884 13.116 16.38 26.395 22.156 39.812-49.156 19.418-88.527 58.244-108.69 107.03-13.787-5.3518-27.441-11.785-40.969-19.344-29.04 72.552-20.137 131.97 0 187.5 13.823-7.4512 27.646-13.349 41.469-18 19.618 46.555 56.793 83.906 103.22 103.75-5.3272 13.943-11.186 27.852-17.188 41.75 56.11 19.17 114.47 31.596 187.5 0-5.3316-14.005-11.119-28.026-16.562-42.031 45.682-19.718 82.326-56.41 102-102.12 14.115 5.2065 28.083 10.939 42.062 16.656 25.373-60.621 26.054-123.07 0-187.5-13.572 6.9065-27.33 13.102-41.312 18.469-19.663-46.936-57.161-84.546-104-104.38 5.2466-13.987 11.281-27.833 17.812-41.594-30.517-11.192-62.089-17.96-95.312-17.875zm-56.469 100.78c5.7697 27.776 6.4124 56.026 4.1562 84.531-28.117 1.1213-55.834-1.2081-83.094-7.375 15.523-34.697 43.835-62.407 78.938-77.156zm121.19-4.0297c32.776 15.097 58.675 47.721 73.557 80.623-25.567 6.1274-51.967 9.0682-79.469 7.9375-3.2519-28.395-0.30252-61.836 5.9113-88.561zm16.12 198.5c19.534 0.0236 38.323 2.8479 56.656 7.375-15.048 32.195-41.185 58.178-73.5 73-7.4626-26.393-10.923-52.795-5.1875-79.188 7.4551-0.81382 14.796-1.1962 22.031-1.1875zm-133.16 1.1875c2.2784 26.744-1.4307 53.096-8.4688 79.219-31.983-14.644-57.953-40.195-73.094-71.906 27.186-4.7984 54.376-6.3514 81.562-7.3125z" fill="url(#q)" fill-rule="evenodd" stroke="#000"/>
  <path transform="translate(-52.84 290.94)" d="m375.27 102c22.572 24.956 47.04 49.438 54.043 78.287l17.173-8.5863c-16.162-31.347-46.467-56.652-71.216-69.701" fill="url(#p)" stroke="#000"/>
  <path transform="translate(-52.84 290.94)" d="m344.46 29.774 29.294 21.213c-33.96 69.64-36.979 109.58-37.881 147.48l-28.284-1.0102c-1.8148-50.858 1.4496-103.53 36.871-167.69" fill="url(#o)" stroke="#000"/>
  <path transform="translate(-52.84 290.94)" d="m193.44 108.06c-39.605 18.773-70.818 45.218-84.853 82.833l39.901 9.0914c12.268-24.394 29.854-41.075 53.538-56.063l-7.5761-35.86" fill="url(#n)" stroke="#000"/>
  <path transform="translate(-52.84 290.94)" d="m337.5 328.93-29.464-20c25.787-2.9674 48.684-1.5214 77.679 6.0714l-6.4286 13.571c-19.556-1.0385-30.803-1.5162-41.786 0.35714" fill="url(#m)" stroke="#000"/>
  <path transform="translate(-52.84 290.94)" d="m307.86 308.57c-7.9151 27.451-2.7656 53.365 5.3572 78.929l22.143-13.571c-1.9539-15-1.9612-30 1.7857-45l-29.286-20.357" fill="url(#l)" stroke="#000"/>
  <path transform="translate(-52.84 290.94)" d="m357.32 450.71-29.286-20.536c54.84-24.152 82.745-60.708 101.61-101.43l29.107 19.821c-22.587 53.019-58.909 82.819-101.43 102.14" fill="url(#k)" stroke="#000"/>
  <path transform="translate(-52.84 290.94)" d="m29.504 345.27 28.833 20.634c8.6604-5.6703 17.954-9.4411 27.274-13.132l-13.385-31.315c-14.59 7.9797-32.374 15.229-42.722 23.813" fill="url(#j)" stroke="#000"/>
  <path transform="translate(-52.84 290.94)" d="m115.36 315.89 29.286 20.536c17.468-3.6982 35.68-4.421 53.571-6.4286l1.0714-26.25c-28.011 3.9822-58.384 1.7057-82.857 12.321 10.653 32.245 38.058 53.09 66.964 72.679-14.45-16.882-27.765-34.678-38.929-52.5l-29.107-20.179" fill="url(#i)" stroke="#000"/>
  <path d="m195.94 302.89c-29.315 0.0754-59.918 5.489-92.188 17.875 9.0884 13.116 16.38 26.395 22.156 39.812-49.156 19.418-88.527 58.244-108.69 107.03-13.787-5.3518-27.441-11.785-40.969-19.344-29.04 72.552-20.137 131.97 0 187.5 13.823-7.4512 27.646-13.349 41.469-18 19.618 46.555 56.793 83.906 103.22 103.75-5.3272 13.943-11.186 27.852-17.188 41.75 56.11 19.17 114.47 31.596 187.5 0-5.3316-14.005-11.119-28.026-16.562-42.031 45.682-19.718 82.326-56.41 102-102.12 14.115 5.2065 28.083 10.939 42.062 16.656 25.373-60.621 26.054-123.07 0-187.5-13.572 6.9065-27.33 13.102-41.312 18.469-19.663-46.936-57.161-84.546-104-104.38 5.2466-13.987 11.281-27.833 17.812-41.594-30.517-11.192-62.089-17.96-95.312-17.875zm-56.469 100.78c5.7697 27.776 6.4124 56.026 4.1562 84.531-28.117 1.1213-55.834-1.2081-83.094-7.375 15.523-34.697 43.835-62.407 78.938-77.156zm120.69 2.0312c32.776 15.097 59.18 41.661 74.062 74.562-25.567 6.1274-51.967 9.0682-79.469 7.9375-3.2519-28.395-0.8076-55.775 5.4062-82.5zm16.625 192.44c19.534 0.0236 38.323 2.8479 56.656 7.375-15.048 32.195-41.185 58.178-73.5 73-7.4626-26.393-10.923-52.795-5.1875-79.188 7.4551-0.81382 14.796-1.1962 22.031-1.1875zm-133.16 1.1875c2.2784 26.744-1.4307 53.096-8.4688 79.219-31.983-14.644-57.953-40.195-73.094-71.906 27.186-4.7984 54.376-6.3514 81.562-7.3125z" fill-rule="evenodd" stroke="#000"/>
  <path d="m197.44 325.02c-19.379-0.0777-39.367 2.4134-60.312 8.0938 5.3748 10.083 9.8864 20.255 13.656 30.5-63.262 16.475-113.22 65.654-130.81 128.47-10.463-3.6497-20.857-7.841-31.156-12.625-14.025 46.966-10.598 86.588 0.6875 125.44 10.353-4.4034 20.674-8.078 30.969-11.156 17.506 60.249 64.877 107.67 125.06 125.28-3.7404 10.295-7.764 20.473-11.938 30.531 40.595 12.002 80.4 17.022 128.75 1-4.1942-10.35-8.5139-20.887-12.594-31.625 59.693-17.574 106.71-64.48 124.44-124.12 10.763 3.7708 21.322 7.8421 31.688 12 13.379-41.928 13.773-83.909 0.25-128.06-10.284 4.5753-20.734 8.7693-31.344 12.5-17.344-60.815-65.082-108.7-125.78-126.28 3.5918-10.376 7.603-20.601 11.906-30.688-19.515-5.452-39.256-8.7496-59.594-9.1875-1.2866-0.0277-2.583-0.0573-3.875-0.0625zm-39.531 61.281c9.0684 34.516 10.487 69.473 7.7812 103.66a22.135 22.135 0 0 1 -21.188 20.375c-34.358 1.3701-68.434-2.192-101.84-11.219 15.333-55.262 59.531-98.638 115.25-112.81zm84.031 1.3125c53.19 15.328 95.124 57.47 110.19 110.78-31.259 8.7849-63.947 13.349-98.281 11.938a22.135 22.135 0 0 1 -21.094 -19.594c-4.1304-36.066 0.12367-70.345 9.1875-103.12zm36.812 188.41c25.664 0.24008 49.803 4.8236 72.844 11.5-15.502 52.491-57.118 93.893-109.75 109.03-10.412-32.19-16.5-66.098-8.7188-101.91a22.135 22.135 0 0 1 19.219 -17.312c8.9798-0.98026 17.786-1.3931 26.406-1.3125zm-135.91 1.1875a22.135 22.135 0 0 1 22.844 20.25c2.935 34.451-2.8798 67.364-12.594 99.062-52.509-15.127-94.066-56.38-109.62-108.72 33.917-7.485 67.254-9.4583 99.375-10.594z" fill="#808080" fill-rule="evenodd" filter="url(#r)" stroke="#000"/>
  <path d="m197.41 332.08c-16.142-0.0647-32.751 1.8604-50.031 5.875 3.7473 7.6966 7.1682 15.438 10.031 23.219 0.67652 1.8439 0.5388 3.9703-0.36991 5.7115s-2.5743 3.0702-4.4738 3.5697c-60.818 15.838-108.87 63.143-125.78 123.53-0.51744 1.8591-1.8312 3.482-3.5418 4.3752s-3.7932 1.0438-5.6145 0.40601c-8.0648-2.8131-16.054-6.0633-24.031-9.5312-10.251 39.215-8.0232 72.888 0.71875 106.19 8.0623-3.1686 16.107-6.0713 24.125-8.4688 1.7834-0.53003 3.7748-0.3192 5.4077 0.57251s2.8867 2.4531 3.4048 4.24c16.83 57.92 62.421 103.54 120.28 120.47 1.8441 0.54361 3.4421 1.8738 4.3112 3.5887s0.997 3.7902 0.345 5.5988c-2.8694 7.8973-6.0273 15.642-9.1562 23.375 35.112 9.6195 69.225 12.96 109.84 1.0938-3.2631-8.0458-6.5754-16.113-9.75-24.469-0.68323-1.8153-0.57582-3.9128 0.28926-5.6488s2.475-3.0848 4.3357-3.6324c57.386-16.895 102.61-62.034 119.66-119.38 0.54522-1.8296 1.8648-3.4146 3.5653-4.2823s3.7583-1.0061 5.5597-0.37396c8.3968 2.9418 16.512 6.1567 24.625 9.3438 10.126-35.817 10.425-71.495 0.25-109.06-8.003 3.3883-16.07 6.6441-24.281 9.5312-1.8172 0.63884-3.8958 0.49258-5.6056-0.39443s-3.0264-2.5021-3.5507-4.3556c-16.674-58.464-62.584-104.53-120.94-121.44-1.8335-0.53263-3.4277-1.8415-4.3071-3.5362s-1.0318-3.7518-0.41168-5.5575c2.7484-7.9395 5.8039-15.756 8.9688-23.5-16.498-4.0933-33.107-6.6336-50.125-7-1.2928-0.0278-2.5471-0.0577-3.75-0.0625zm-39.844 47.156c3.2047-0.15803 6.3632 2.1491 7.1875 5.25 9.3207 35.476 10.751 71.276 8 106.03-0.8737 22.969-18.75 25.987-27.969 26.875-35.032 1.397-69.842-2.217-103.97-11.438-1.8012-0.48584-3.3894-1.7157-4.3106-3.338s-1.1637-3.6163-0.65812-5.412c16.014-57.719 62.118-102.95 120.31-117.75 0.45982-0.11989 0.93174-0.1933 1.4062-0.21875zm84.375 1.3125c0.66364-0.01 1.3286 0.0749 1.9688 0.25 55.555 16.01 99.299 59.977 115.03 115.66 0.50778 1.7876 0.27407 3.7737-0.63478 5.3946s-2.4815 2.8563-4.2715 3.3554c-31.881 8.9598-65.325 13.632-100.47 12.188-21.603-0.98661-25.974-12.641-27.844-25.844-4.2506-37.115 0.15629-72.36 9.4062-105.81 0.81827-2.9542 3.747-5.1844 6.8125-5.1875zm12.562 188.46c9.7172-0.62122 20.064-0.0894 24.312-0.0497 26.465 0.24757 51.272 4.9781 74.75 11.781 1.78 0.51854 3.3354 1.7672 4.2264 3.3931s1.1067 3.6088 0.58607 5.3882c-16.19 54.821-59.589 98.032-114.56 113.84-3.4867 1.0017-7.5718-1.1731-8.6875-4.625-9.125-26.232-15.125-74.232-10.625-104.23 4.5-18 12.013-21.626 30-25.5zm-111.91 1.1378c17.805 2.2211 23.879 6.0806 30.156 26.719 3.0344 35.618-3.0221 69.464-12.906 101.72-1.0644 3.5103-5.1921 5.7591-8.7188 4.75-54.843-15.799-98.187-58.836-114.44-113.5-0.55564-1.8572-0.30395-3.941 0.6779-5.6125s2.6794-2.906 4.5721-3.325c34.614-7.6388 68.419-9.6104 100.66-10.75z" fill="#fff" fill-rule="evenodd"/>
  <path transform="translate(9.2857 -9.2857)" d="m187.38 346.34c-13.195-0.0529-26.772 1.3545-40.812 4.125 2.4644 5.4098 4.8175 10.837 6.8438 16.344a6.4088 6.4088 0 0 1 0.0312 0c1.3276 3.6184 1.056 7.5056-0.71875 10.906-0.66201 1.2685-1.5477 2.3408-2.5312 3.3125 5.1393 0.85409 9.3487 4.3845 10.75 9.6562a6.4088 6.4088 0 0 1 0 0.0312c9.5267 36.26 10.953 72.709 8.1875 107.91h0.0312c-3e-3 0.0872-0.0274 0.16314-0.0312 0.25-0.5689 12.991-6.5288 21.906-13.719 26.594-7.2381 4.7196-15.094 5.6838-20 6.1562a6.4088 6.4088 0 0 1 -0.375 0.0312c-35.64 1.4214-71.096-2.2594-105.87-11.656-3.5234-0.95037-6.4239-3.2143-8.2188-6.375-0.74652-1.3146-1.227-2.7182-1.5-4.1562-0.94871 0.94338-1.9897 1.7957-3.2188 2.4375-3.3494 1.749-7.1545 2.0295-10.719 0.78125-5.8456-2.039-11.609-4.3349-17.344-6.7188-7.283 32.322-5.8512 60.637 0.71875 88.75 5.8889-2.1943 11.789-4.2582 17.719-6.0312a6.4088 6.4088 0 0 1 0.03125 -0.0312c3.455-1.0268 7.0814-0.65369 10.281 1.0938 1.3532 0.73899 2.5022 1.7124 3.5 2.8125 0.31022-1.293 0.74154-2.5652 1.4375-3.75 1.9155-3.261 5.0438-5.499 8.7188-6.3125 35.245-7.778 69.473-9.763 101.81-10.906a6.4088 6.4088 0 0 1 1 0.0625c9.2663 1.1559 16.74 2.8338 22.75 7.9062s9.4764 12.518 12.75 23.281a6.4088 6.4088 0 0 1 0.25 1.3438c3.1248 36.679-3.119 71.371-13.156 104.12-1.567 5.1679-5.751 8.5939-10.656 9.375 0.86522 0.92564 1.6585 1.9267 2.25 3.0938 1.6957 3.3459 1.9271 7.1623 0.65625 10.688-2.0767 5.7158-4.3376 11.221-6.5625 16.75 29.894 7.4723 58.858 9.6755 92.562 1.125-2.3738-5.8532-4.7702-11.666-7.0938-17.781a6.4088 6.4088 0 0 1 0 -0.0312c-1.3307-3.5355-1.1687-7.3386 0.53125-10.75 0.578-1.1599 1.3426-2.1745 2.1875-3.0938-4.8677-0.69677-9.065-3.955-10.75-9-0.015-0.045-0.0479-0.0797-0.0625-0.125-9.6124-27.716-15.641-75.351-10.875-107.12a6.4088 6.4088 0 0 1 0.125 -0.625c2.429-9.7158 6.1492-16.819 12.219-21.531s13.44-6.6714 22.656-8.6562a6.4088 6.4088 0 0 1 0.9375 -0.15625c5.1125-0.32684 10.287-0.34289 14.719-0.28125 4.4192 0.0615 8.1486 0.20087 10.062 0.21875 27.191 0.25436 52.594 5.1133 76.469 12.031 3.5026 1.0203 6.34 3.3258 8.0625 6.4688 0.70934 1.2943 1.1482 2.7093 1.4062 4.125 0.95845-0.93244 2.0187-1.7779 3.25-2.4062 3.3198-1.694 7.0737-1.9228 10.594-0.6875v-0.0312c6.2091 2.1753 12.101 4.5256 18.031 6.8438 7.4722-30.234 7.6705-60.264 0.1875-91.844-5.8228 2.3836-11.624 4.7963-17.625 6.9062-3.5634 1.2527-7.349 0.96568-10.656-0.75-1.2234-0.63468-2.2916-1.4656-3.25-2.4062-0.26226 1.4423-0.69082 2.8559-1.4375 4.1875-1.7878 3.1885-4.6973 5.4417-8.1562 6.4062v-0.0312c-32.446 9.1186-66.56 13.912-102.44 12.438a6.4088 6.4088 0 0 1 -0.0312 0c-11.931-0.54487-20.588-4.3722-25.906-10.562s-7.0046-13.753-8-20.781a6.4088 6.4088 0 0 1 -0.0312 -0.1875c-4.3597-38.068 0.17501-74.187 9.5938-108.25 1.4279-5.1553 5.5768-8.6187 10.656-9.5-0.9982-0.98138-1.8934-2.0854-2.5625-3.375-1.7237-3.3219-1.989-7.0766-0.78125-10.594 1.97-5.691 4.2152-11.212 6.4062-16.75-13.773-3.0201-27.563-4.9472-41.625-5.25-1.3024-0.028-2.5417-0.058-3.6562-0.0625z" fill="#fff" fill-rule="evenodd" filter="url(#a)" stroke="#000" stroke-width="3"/>
  <g transform="translate(10 -9.2857)" fill="#fff" fill-rule="evenodd" stroke="#000" stroke-width="3">
   <path d="m187.38 351.34c-10.917-0.0438-22.116 0.90289-33.656 2.8438 1.5442 3.6088 3.0245 7.2362 4.375 10.906a11.403 11.403 0 0 1 0.0312 0c1.6328 4.4502 1.4245 9.0708-0.34375 13.344 3.8187 2.3712 6.7148 6.1338 8 10.969a11.403 11.403 0 0 1 0 0.0312c9.6847 36.862 11.15 73.839 8.375 109.38-5e-3 0.0623-0.0264 0.1252-0.0312 0.1875-4e-3 0.0955 5e-3 0.18609 0 0.28125-0.685 14.18-7.6809 24.951-16 30.375-8.4128 5.4855-17.113 6.4428-22.25 6.9375a11.403 11.403 0 0 1 -0.625 0.0625c-36.114 1.4402-72.119-2.3097-107.41-11.844-4.555-1.2286-8.2308-4.0142-10.719-7.9375-4.2432 1.8096-8.8217 2.0431-13.25 0.5h-0.03125c-4.0915-1.4277-8.1426-2.9652-12.156-4.5625-5.3182 27.106-4.2765 51.228 0.75 75.25 4.2231-1.4953 8.4493-2.9108 12.719-4.1875a11.403 11.403 0 0 1 0.03125 0c4.4615-1.326 9.0773-0.91396 13.281 1.125 2.6556-3.7618 6.4591-6.3698 11-7.375 35.736-7.8865 70.299-9.8852 102.72-11.031a11.403 11.403 0 0 1 1.8125 0.0938c9.5496 1.1913 18.18 3.0159 25.344 9.0625s10.934 14.547 14.312 25.656a11.403 11.403 0 0 1 0.46875 2.3438c3.1943 37.495-3.2235 72.865-13.375 106-3e-3 0.01 3e-3 0.0217 0 0.0312-1.4356 4.711-4.3644 8.3128-8.0625 10.562 1.5931 4.1346 1.7493 8.5668 0.21875 12.812a11.403 11.403 0 0 1 0 0.0312c-1.4488 3.9876-3.0054 7.7326-4.5312 11.594 25.727 5.8906 50.639 7.449 79.094 1.125-1.6776-4.1762-3.3495-8.2184-5-12.562a11.403 11.403 0 0 1 0 -0.0312c-1.5865-4.2152-1.5364-8.6416 0-12.812-3.6591-2.1476-6.559-5.6083-8.0938-10.156h-0.0312c-0.0265-0.0763-0.036-0.17343-0.0625-0.25-9.9857-28.864-16.034-76.26-11.062-109.41a11.403 11.403 0 0 1 0.21875 -1.0625c2.5684-10.274 6.8547-18.765 14-24.312s15.266-7.5715 24.656-9.5938a11.403 11.403 0 0 1 1.6875 -0.21875c5.3104-0.33949 10.585-0.37522 15.094-0.3125 4.4868 0.0624 8.2813 0.2024 10.031 0.21875 27.756 0.25966 53.661 5.2425 77.844 12.25 4.4939 1.3091 8.0469 4.1505 10.438 8 4.2098-1.7495 8.7476-1.9737 13.125-0.4375 4.47 1.566 8.5954 3.2307 12.875 4.875 5.6359-25.859 5.7818-51.529 0.15625-78.438-4.1433 1.6374-8.1802 3.3781-12.438 4.875-4.4298 1.5573-9.0233 1.3017-13.219-0.46875-2.4815 3.947-6.123 6.7235-10.562 7.9688h-0.0312c-32.878 9.237-67.562 14.123-104 12.625a11.403 11.403 0 0 1 -0.0625 -0.0312c-12.811-0.58505-23.113-4.9198-29.438-12.281s-8.1138-15.982-9.1564-23.344a11.403 11.403 0 0 1 -0.0312 -0.28125c-4.4448-38.811 0.16848-75.617 9.7188-110.16 1.3008-4.6961 4.2009-8.248 7.9375-10.594-1.8065-4.2315-2.0386-8.7666-0.53125-13.156a11.403 11.403 0 0 1 0 -0.0312c1.3581-3.9232 2.9091-7.6676 4.375-11.5-11.611-2.2583-23.221-3.6214-35-3.875-1.31-0.0282-2.4856-0.0583-3.5312-0.0625z" filter="url(#a)"/>
   <path d="m187.34 356.34c-8.6631-0.0347-17.543 0.62817-26.625 1.875 0.68232 1.7189 1.4235 3.4197 2.0625 5.1562 1.6061 4.3774 1.8256 8.8487 0.84375 13.156 3.2392 2.9395 5.7029 6.8314 6.9688 11.594a16.394 16.394 0 0 1 0 0.0625c9.8453 37.473 11.319 74.926 8.5312 110.81-0.0168 0.21662-0.0141 0.43974-0.0312 0.65625h-0.0312c-0.79842 15.397-8.7687 27.994-18.219 34.156-9.5868 6.251-19.133 7.2331-24.5 7.75a16.394 16.394 0 0 1 -0.90625 0.0625c-36.588 1.4591-73.111-2.3287-108.91-12-4.4902-1.2112-8.2829-3.5652-11.25-6.875-4.2854 1.0273-8.7002 0.87145-13.062-0.65625-2.2282-0.77723-4.3953-1.6406-6.5938-2.4688-3.6277 22.011-2.9554 42.017 0.6875 61.906 2.4747-0.82255 4.9386-1.6903 7.4375-2.4375a16.394 16.394 0 0 1 0.03125 0c4.4061-1.3095 8.8922-1.3252 13.188-0.0625 3.1079-3.1126 6.9885-5.2963 11.438-6.2812 36.228-7.9949 71.094-9.9761 103.59-11.125a16.394 16.394 0 0 1 2.625 0.0937c9.8328 1.2266 19.62 3.1985 27.938 10.219s12.391 16.545 15.875 28a16.394 16.394 0 0 1 0.65625 3.375c3.2637 38.31-3.2967 74.359-13.562 107.88-6e-3 0.0191 6e-3 0.0434 0 0.0625h-0.0312c-1.4086 4.6033-3.8516 8.386-7 11.188 0.80891 4.09 0.57117 8.3079-0.90625 12.406a16.394 16.394 0 0 1 0 0.0312c-0.77942 2.1452-1.6341 4.0887-2.4375 6.1875 21.4 4.3846 42.25 5.4524 65.469 1.0938-0.94173-2.3891-1.8803-4.6089-2.8125-7.0625a16.394 16.394 0 0 1 -0.0312 -0.0312c-1.5339-4.0754-1.8122-8.2689-1.0625-12.375-3.1062-2.6778-5.538-6.307-7.0312-10.719-0.0229-0.0677-0.0713-0.1194-0.0937-0.1875-0.0181-0.0548-0.0447-0.10123-0.0625-0.15625-10.361-30.002-16.429-77.163-11.25-111.69a16.394 16.394 0 0 1 0.3125 -1.5312c2.7078-10.831 7.5608-20.649 15.781-27.031s17.124-8.4716 26.688-10.531a16.394 16.394 0 0 1 2.4062 -0.3125c5.5081-0.35213 10.882-0.40755 15.469-0.34375 4.5544 0.0634 8.4452 0.20393 10.031 0.21875 28.322 0.26495 54.664 5.3406 79.156 12.438a16.394 16.394 0 0 1 0.0312 0c4.4135 1.2857 8.0775 3.7092 10.938 6.9688 4.2132-0.964 8.5733-0.80536 12.844 0.6875h0.0312c2.5952 0.90945 4.9211 1.8747 7.4375 2.8125 3.9842-21.381 4.0833-42.666 0.125-64.812-2.3538 0.88867-4.5715 1.9071-6.9688 2.75-4.3238 1.52-8.7405 1.642-12.969 0.65625-2.9661 3.3428-6.7324 5.707-11.125 6.9375h-0.0312c-33.318 9.3608-68.553 14.303-105.56 12.781a16.394 16.394 0 0 1 -0.0625 0c-13.69-0.62521-25.67-5.4992-33-14.031s-9.2228-18.181-10.312-25.875a16.394 16.394 0 0 1 -0.0625 -0.4375c-4.5298-39.553 0.19327-77.048 9.875-112.06 1.2763-4.6079 3.6862-8.4002 6.8438-11.281-0.96525-4.1952-0.79886-8.5125 0.65625-12.75a16.394 16.394 0 0 1 0 -0.0625c0.70612-2.0398 1.545-3.9269 2.2812-5.9375-9.3996-1.5708-18.793-2.6082-28.281-2.8125-1.3175-0.0283-2.492-0.0274-3.4688-0.0312z" filter="url(#a)"/>
   <path d="m187.31 361.34c-6.4235-0.0258-12.957 0.33546-19.625 1.0312 1.3981 4.1169 1.7934 8.2688 1.3125 12.344 2.9181 3.2885 5.1664 7.3431 6.4375 12.125a21.395 21.395 0 0 1 0 0.0625c10.003 38.074 11.453 76.053 8.6562 112.28h0.0312c-5e-3 0.1377-0.0249 0.26884-0.0312 0.40625-0.0121 0.15464-0.019 0.31417-0.0312 0.46875h-0.0312c-0.92499 16.613-9.863 31.042-20.438 37.938-10.763 7.0179-21.152 7.9921-26.75 8.5312a21.395 21.395 0 0 1 -1.2188 0.0937c-37.053 1.4776-74.08-2.3533-110.38-12.156h-0.03125c-4.4599-1.2076-8.2938-3.4182-11.531-6.3438-4.3237 0.58384-8.7218 0.2138-13.094-1.3125h-0.03125c-0.32911-0.11484-0.64043-0.25904-0.96875-0.375-2.2358 17.03-1.8272 32.862 0.59375 48.562 0.71187-0.21985 1.4105-0.47385 2.125-0.6875a21.395 21.395 0 0 1 0.03125 0c4.4011-1.308 8.8463-1.4556 13.188-0.65625 3.383-2.7686 7.3171-4.793 11.781-5.7812 36.72-8.1036 71.951-10.098 104.53-11.25a21.395 21.395 0 0 1 3.4062 0.15625c10.116 1.262 21.058 3.3168 30.531 11.312s13.848 18.605 17.438 30.406a21.395 21.395 0 0 1 0.84375 4.4062c3.3342 39.137-3.3647 75.844-13.75 109.75-6e-3 0.019 6e-3 0.0435 0 0.0625h-0.0312c-1.386 4.5376-3.649 8.3208-6.4375 11.438 0.40106 4.1089-0.0554 8.2811-1.5312 12.375a21.395 21.395 0 0 1 -0.0312 0.0625c-0.0947 0.26052-0.18621 0.4903-0.28125 0.75 16.966 3.0052 33.626 3.6429 51.688 0.9375-0.18712-0.48838-0.3758-0.91487-0.5625-1.4062a21.395 21.395 0 0 1 -0.0312 -0.0625c-1.531-4.0677-2.0547-8.2035-1.7188-12.312-2.7392-2.9676-4.9484-6.5914-6.4062-10.906l-0.0625 0.0312c-0.0476-0.1367-0.0776-0.30018-0.125-0.4375-10.74-31.133-16.824-78.09-11.438-114a21.395 21.395 0 0 1 0.40625 -2c2.8474-11.39 8.265-22.531 17.562-29.75s18.95-9.3717 28.688-11.469a21.395 21.395 0 0 1 3.125 -0.4375c5.7062-0.36479 11.242-0.37738 15.906-0.3125 4.6222 0.0643 8.5469 0.17421 9.9688 0.1875 28.888 0.27024 55.73 5.4385 80.531 12.625a21.395 21.395 0 0 1 0 0.0312c4.3777 1.2753 8.1216 3.4846 11.25 6.375 4.2374-0.52455 8.5478-0.14813 12.812 1.3438h0.0312c0.68335 0.23947 1.2606 0.50841 1.9375 0.75 2.576-16.871 2.6294-33.712 0.0937-51.094-0.48481 0.17314-0.95061 0.36005-1.4375 0.53125-4.3339 1.5236-8.7193 1.8368-13 1.2812-3.2417 2.9589-7.0306 5.1815-11.406 6.4062h-0.0312c-33.759 9.4847-69.513 14.514-107.09 12.969a21.395 21.395 0 0 1 -0.0937 0c-14.571-0.66529-28.257-6.0764-36.594-15.781s-10.332-20.41-11.469-28.438a21.395 21.395 0 0 1 -0.0625 -0.5625c-4.615-40.297 0.21783-78.447 10.031-113.94a21.395 21.395 0 0 1 0 -0.0312c1.2762-4.6073 3.4487-8.5464 6.2812-11.75-0.49862-4.1664-0.12257-8.3833 1.3125-12.562a21.395 21.395 0 0 1 0 -0.0625c0.0407-0.11769 0.0842-0.22618 0.125-0.34375-7.158-0.9806-14.333-1.6263-21.531-1.7812-1.325-0.0285-2.4672-0.0276-3.375-0.0312z" filter="url(#a)"/>
   <path d="m187.31 367.03c-4.1544-0.0167-8.393 0.17562-12.656 0.46875 0.22666 1.8059 0.323 3.6142 0.25 5.4062 2.6492 3.5513 4.7588 7.6815 6.0312 12.469a27.085 27.085 0 0 1 0 0.0937c4.2699 16.252 6.9576 32.445 8.5 48.5 2.0672-16.349 5.3496-32.244 9.5938-47.594 1.2658-4.5699 3.3008-8.5396 5.8438-11.969-0.0961-2.1104-0.0342-4.2214 0.28125-6.3438-4.854-0.50233-9.7271-0.89521-14.594-1-1.3336-0.0287-2.4207-0.0279-3.25-0.0312zm1.9062 138.12c-2.3596 16.169-11.701 30.563-22.531 37.625-10.279 6.7026-19.803 8.353-26.094 9.0625 9.3387 1.4466 19.632 4.1052 28.875 11.906 10.433 8.8058 15.126 20.141 18.781 31.906 3.0193-11.98 9.1143-24.582 19.594-32.719 9.132-7.0904 18.224-9.6595 26.969-11.625-12.913-2.0269-25.179-7.501-33.125-16.75-8.8163-10.262-11.211-21.153-12.469-29.406zm181.56 27.469c-2.5351 0.46982-5.0541 0.67712-7.5625 0.5625-3.4715 2.713-7.4543 4.6995-11.875 5.9375-0.0132 4e-3 -0.0181 0.0276-0.0312 0.0312v-0.0312c-19.721 5.5408-40.142 9.5516-61.219 11.688 21.592 1.9126 41.928 6.2547 61 11.781a27.085 27.085 0 0 1 0.0312 0c4.391 1.2792 8.2799 3.2991 11.625 5.9375 2.6422-0.10712 5.308 0.17842 7.9688 0.71875 1.3819-12.103 1.4153-24.237 0.0625-36.625zm-366.22 1c-1.1017 11.871-0.8748 23.182 0.46875 34.375 3.0203-0.50761 6.0448-0.75187 9.0312-0.4375 3.5667-2.4577 7.5913-4.2671 12.031-5.25 27.042-5.9677 53.145-8.6285 77.938-10.094-26.956-1.1458-53.807-5.0972-80.281-12.25-4.516-1.2181-8.5216-3.2198-12-5.9062-2.3822 0.12119-4.7837-0.0298-7.1875-0.4375zm183.16 128.47c-2.6309 18.125-6.8487 35.573-11.969 52.281h-0.0312c-1.4072 4.6016-3.4858 8.6385-6.0938 12.031 0.0241 2.0925-0.12136 4.1836-0.5 6.2812 12.266 1.7663 24.418 2.1725 37.219 0.8125-0.47087-2.2412-0.71187-4.4751-0.71875-6.7188-2.5339-3.2021-4.5997-6.9919-6.0625-11.312l-0.0312 0.0312c-0.0478-0.13749-0.0774-0.29949-0.125-0.4375-0.015-0.0458-0.0477-0.0791-0.0625-0.125-5.2569-15.263-9.3089-33.698-11.625-52.844z" filter="url(#a)"/>
   <path d="m187.28 372.72c-1.8194-7e-3 -3.6899 0.10273-5.5312 0.15625 1.9563 3.3278 3.6005 6.9419 4.6875 11.031a32.796 32.796 0 0 1 0.0312 0.0937c1.295 4.9288 2.472 9.8653 3.5 14.781 1.1012-4.6886 2.293-9.3461 3.5625-13.938 1.1934-4.3087 2.9565-8.1782 5.125-11.625-2.7389-0.19154-5.4776-0.37847-8.2188-0.4375-1.3422-0.0289-2.4058-0.0595-3.1562-0.0625zm1.6562 151.91c-4.7673 9.7648-11.594 18.027-19.125 22.938-2.8495 1.858-5.6442 3.3029-8.3438 4.5312 3.9504 1.8697 7.8993 4.1152 11.688 7.3125 7.091 5.9848 11.612 12.944 15.031 20.188 3.7679-7.9337 8.9122-15.532 16.156-21.156 3.8338-2.9767 7.5888-5.0554 11.312-6.8125-7.0294-3.2406-13.393-7.6543-18.281-13.344-3.91-4.5513-6.4298-9.1588-8.4375-13.656zm176.78 14.188c-0.25018 7e-3 -0.50015 0.0293-0.75 0.0312-3.6316 2.5257-7.6152 4.5333-12.062 5.7812-0.0217 6e-3 -0.0408 0.0252-0.0625 0.0312-8.3533 2.346-16.861 4.3681-25.469 6.1562 8.6538 1.8562 17.144 3.9142 25.312 6.2812a32.796 32.796 0 0 1 0.0312 0c4.4028 1.2826 8.2804 3.3262 11.781 5.7812 0.40585 5e-3 0.8123 0.0447 1.2188 0.0625 0.6257-7.9823 0.6119-16.007 0-24.125zm-355.97 0.90625c-0.43467 7.5405-0.31586 14.871 0.3125 22.125 0.84228-0.0129 1.6922-0.0425 2.5312 0 3.7301-2.2849 7.7647-4.1321 12.25-5.125a32.796 32.796 0 0 1 0.03125 0c8.7055-1.9212 17.291-3.466 25.781-4.7812-9.4903-1.7734-18.967-3.9276-28.375-6.4688h-0.03125c-4.5516-1.231-8.601-3.2409-12.25-5.75h-0.25zm177.59 153.75c-1.8624 7.6443-3.8757 15.156-6.125 22.5-7e-3 0.0218-0.0246 0.0407-0.0312 0.0625-1.3606 4.4646-3.3575 8.3141-5.6875 11.812 8.0426 0.88449 16.061 1.0574 24.312 0.53125-2.2515-3.2626-4.2181-6.8622-5.625-11h-0.0312c-0.0419-0.12037-0.0833-0.2543-0.125-0.375-0.0365-0.1102-0.0892-0.20172-0.125-0.3125h0.0312c-2.4784-7.2045-4.6791-15.043-6.5938-23.219z" filter="url(#a)"/>
  </g>
  <path transform="translate(-52.84 290.94)" d="m112.63 190.39 37.628 6.0609c10.375-17.782 26.978-35.945 48.235-50.76l-5.0508-34.093c-27.248 16.932-54.837 23.66-80.812 78.792" fill="none" stroke="#000"/>
  <path transform="translate(-52.84 290.94)" d="m156.38 472.2 29.242 20.714c90.342 33.705 148.22 16.345 187.95-0.0523l-29.107-20.714c-48.906 21.117-106.89 27.965-187.58 0.68365" fill="url(#h)" stroke="#000"/>
  <path transform="translate(-52.84 290.94)" d="m327.92 430.68 29.168 20.329 16.162 40.532-28.789-19.951-16.541-40.911" fill="url(#g)" stroke="#000"/>
  <path transform="translate(-52.84 290.94)" d="m430.54 329.29 28.393 20 41.607 15.893-28.75-20.179-41.25-15.714" fill="url(#f)" stroke="#000"/>
  <path transform="translate(-52.84 290.94)" d="m501.04 177.76-28.284-19.824c28.265 81.765 16.239 137.17-0.50507 186.5l28.789 20.708c13.384-34.157 33.718-98.473 0-187.38" fill="url(#e)" stroke="#000"/>
 </g>
</svg>
