<svg version="1.2" xmlns="http://www.w3.org/2000/svg" viewBox="0 0 370 520" width="370" height="520">
	<title>5-svg</title>
	<style>
		.s0 { fill: #1e1211 } 
		.s1 { fill: #89cbe5 } 
		.s2 { fill: #000000 } 
		.s3 { fill: #ffcda6 } 
		.s4 { fill: #ff3800 } 
		.s5 { fill: #d2c9c9 } 
	</style>
	<g id="layer1">
		<g id="Layer">
			<path id="Layer" class="s0" d="m128.8 164.6l94.4-0.1 17.6 36.5 91.4 46q28.2 67.3 33.6 115.1 8.3 77.6-2.3 126.5-4.4 16.6-14.5 26.8l-316 3.5q-23.3 0.1-29.8-79.3-6.8-81.1 11.1-142.1 5.6-20.8 14.6-46.6l86.2-50.2 13.5-36.1"/>
		</g>
		<g id="Layer">
			<path id="Layer" class="s1" d="m135.8 196.6l74 2.9-6.3 6.7q12.6 35.1 16.4 38.2 0.5 0.9 0.6 3.8 0 3.5-0.7 11-4.7 43.3-5.7 56.7-1.6 18.5-2.5 34.8-1.9 38.7 0.2 66.3 2.4 39.8 17.9 99.7l-84.9 0.9q13.1-23.8 17.1-38 6-18.9 5.7-48.8 0.1-26.1-6.3-105.1l-30.1-87.8 4.5-41.3z"/>
		</g>
		<g id="Layer">
			<path id="Layer" class="s2" d="m208.3 12.3q13.4 9.3 14 26.6 10.5 3.7 13.2 10.8 3.5 7.7 1.1 25.5-2 16.7-11.5 57.4l-0.1 0.2-96 3.8q-15.2-21.4-23.2-48-6.3-22.6-1.5-39.5 6.5-21 25.5-36 17-13.2 38.6-13.4 22.7 0.4 39.9 12.6z"/>
		</g>
		<g id="Layer">
			<path id="Layer" class="s3" d="m195 46.7q13.4 0 17.1 6.8 1.9 3.3 2.2 7.8 0.4 1.7 0.1 14.1 0.1 2.8 0.5 4.7 0.3 1.9 1.2 4.3 5.3 10.2 5.5 12.3 1.4 4.8 2.2 17.1 3.8-11.4 14.6-8.2 5.8 3.3 4.4 20.2-1.5 14.9-5.7 21.1-1.6 2.2-4.2 2.9l-8.1 0.1q-1.3 0.5-2.2 2.4-2.4 2.8-1.8 34.6l-17.2 18.6 0.7 16.3-13.7 11.8-15.3 37.3-8.4-34.9-30.8-27.6-0.1-11.4-5.2-27.6-5.9-15.4q-11.4 0.9-14.9-6.6-4.4-9-3.7-24.1 0.4-13.4 13.1-8.7 3.9-13.2 4.7-20.6 0.7-3.6 0.5-22.4 0.1-3.3 0.5-5.6 0.8-5.5 3.9-8 3.3-2.9 12.9-4.4 44.9-7.8 53-6.9"/>
		</g>
		<g id="Layer" style="opacity: .1">
			<path id="Layer" class="s4" d="m221.1 163.7l-39.8 60.3-50.2-53.4q28.6 27.6 46.8 26.1 9.1-0.7 18.9-8.2 8.5-6.2 24.4-25"/>
		</g>
		<g id="Layer" style="opacity: .4">
			<path id="Layer" class="s4" d="m199 153.9l-41.8 5.3q10.6-2.7 19.3-3.7 7.7-1 22.6-1.6"/>
		</g>
		<g id="Layer" style="opacity: .3">
			<path id="Layer" class="s4" d="m189.8 135.4q-6.1 6.2-8.6 8.4-2.7 2.5-3.9 2.8-0.5 0.1-0.9-0.1-0.2-0.1-0.6-0.6l-11.1-5.8 12.6 1.5 12.5-6.2"/>
		</g>
		<g id="Layer">
			<path id="Layer" class="s2" d="m164.3 120.6q-5.5 7.9-18.6 8.9-11.9 0.4-17.8-6.8-5.6-6-9.2-25.4l50.5-2.2q0.1 19-4.9 25.5z"/>
		</g>
		<g id="Layer">
			<path id="Layer" class="s2" d="m224.9 92.7q0.1 18.1-4.6 24.9-5.6 8.4-19 9.4-12.2 0.3-18.2-7.2-5.3-6.4-8.8-24.9l50.6-2.3"/>
		</g>
		<g id="Layer">
			<path id="Layer" class="s2" d="m148.8 93.7q3.2 0.1 5.7 1.4 2.3 1.2 4.9 4.3 1.1 1.6 0.3 3.3-0.9 1.6-2.7 1.6-1.1 0-1.8-0.6l-2.1-2.2q-0.7-0.6-1.3-1-1.1-0.6-2.6-0.7-2.2-0.1-6 0.8-1.8 0.4-4.2 1.1l-7.2 2.2q-1.7 0.2-2.9-1.2-0.8-1.1-0.5-2.6 0.4-1.4 1.7-2 13.6-4.5 18.6-4.4"/>
		</g>
		<g id="Layer">
			<path id="Layer" class="s2" d="m195.2 90.3q5.1-0.1 18.5 4.9 1.3 0.6 1.7 2 0.2 1.5-0.7 2.6-1.1 1.3-2.8 1.1l-7.2-2.4q-2.4-0.8-4.1-1.2-3.9-1.1-6-1-1.5 0-2.7 0.7-0.6 0.3-1.2 0.9l-2.2 2.2q-0.8 0.5-1.8 0.5-1.8-0.1-2.7-1.7-0.7-1.7 0.4-3.2 2.6-3.1 5-4.2 2.5-1.3 5.8-1.2"/>
		</g>
		<g id="Layer" style="opacity: .1">
			<path id="Layer" class="s5" d="m307.5 345.9l20.1 169.7-22.7 0.3 2.6-170.1zm-251.1 13.6l21 158.8-16 0.2-5.1-159.2z"/>
		</g>
		<g id="Layer" style="opacity: .2">
			<path id="Layer" class="s2" d="m191.4 236.5l4.9 6.5 4.4 19.4-18 0.1 8.7-26zm-39.2-3.8l11.6 9.5 6.2 21.9-18.5-1.6 0.6-29.8z"/>
		</g>
		<g id="Layer">
			<path id="Layer" class="s2" d="m180 96.1q1 0.1 1.2 1.2 0 1.1-1.1 1.4 0 0-0.2 0l-19.6 1.1-0.2-2.6 19.8-1.1"/>
		</g>
		<g id="Layer" style="opacity: .1">
			<path id="Layer" class="s2" d="m177.1 270.2l9.6 247h-2.6l-9.7-247q0.1-1.2 1.3-1.3h0.1q1.1 0 1.3 1.3z"/>
		</g>
	</g>
</svg>