<?xml version="1.0" encoding="UTF-8"?>
<svg width="744.09" height="744.09" viewBox="0 0 744.09448 1052.3622" xmlns="http://www.w3.org/2000/svg">
 <defs>
  <filter id="a" x="-.28148" y="-.69091" width="1.563" height="2.3818">
   <feGaussianBlur stdDeviation="1.22475"/>
  </filter>
 </defs>
 <path d="m134.27 290.82s-5.2023-128.03 97.278-151.89 202.72-15.052 272.25 17.084 93.592 83.435 91.885 144.87l-14.274 111.1-73.385 401.06 128 81.919-169.48 15.846-151.36-29.499 131.41-83.625 27.306-209.92s-19.304 82.077-81.525 116.7c-38.657 21.511-38.207 17.689-82.761 23.241s-105.36-124.58-105.36-124.58" fill="#ffb380" stroke="#000" stroke-linecap="round" stroke-width="2"/>
 <path d="m183.78 188.16-25.375 4.6562c-26.294 44.324-24.125 98-24.125 98l69.969 312.31s60.821 130.15 105.38 124.59c5.7052-0.71093 10.625-1.2736 15.031-1.75 0 0-34.24-9.6527-59.796-40.999-32.239-39.543-56.912-130.88-74.515-203.63s-30.879-148.05-31.774-182.97c-1.5679-61.167 25.21-110.22 25.21-110.22z" opacity=".22594" stroke="#000" stroke-linecap="round"/>
 <path transform="matrix(.85025 0 0 .85025 -203.27 43.959)" d="m785.05 370.34c0 58.438-47.373 105.81-105.81 105.81s-105.81-47.373-105.81-105.81 47.373-105.81 105.81-105.81 105.81 47.373 105.81 105.81z" fill="#fff" stroke="#000" stroke-linecap="round" stroke-width="2.1183"/>
 <path transform="matrix(.99511 0 0 .99511 -241.38 90.528)" d="m682.66 264.53c0 13.196-10.697 23.893-23.893 23.893s-23.893-10.697-23.893-23.893 10.697-23.893 23.893-23.893 23.893 10.697 23.893 23.893z" stroke="#000" stroke-linecap="round" stroke-width="2.3"/>
 <path transform="matrix(.641 0 0 .641 -293.55 120.85)" d="m785.05 370.34a105.81 105.81 0 1 1 -211.62 0 105.81 105.81 0 1 1 211.62 0z" fill="#fff" stroke="#000" stroke-linecap="round" stroke-width="3.1201"/>
 <path transform="matrix(.89778 0 0 .89778 -428.99 120.75)" d="m682.66 264.53a23.893 23.893 0 1 1 -47.786 0 23.893 23.893 0 1 1 47.786 0z" stroke="#000" stroke-linecap="round" stroke-width="2.3"/>
 <path d="m565.13 366.57s31.119-28.01 51.462-4.201 10.982 40.619-2.1005 87.17c0 0-7.5429 26.627-24.156 29.407s-36.758-22.055-36.758-22.055" fill="#ffb380" stroke="#000" stroke-linecap="round" stroke-width="2"/>
 <path d="m608.58 371.67s-16.387-1.5454-24.564 8.7338-11.463 24.564-11.463 24.564l14.192 21.289-18.559 18.559" fill="none" stroke="#000" stroke-linecap="round" stroke-width="2"/>
 <path d="m139.84 208.08s115.6-41.116 169.83 1.5439c66.584-32.993 151.31 20.071 151.31 20.071l27.791 114.25 43.243 46.327-17.018 60.26 7.7353 16.943s24.645-80.412 42.106-97.962 38.091-15.384 38.091-15.384 51.432-125.97 6.2694-192.37c-45.645-67.112-211.52-91.092-211.52-91.092l-126.6 9.2636s-91.985-65.961-131.23-67.933-81.828 32.423-81.828 32.423 72.31 19.318 92.636 32.423 32.423 33.966 32.423 33.966-68.082-29.732-94.18-23.159-47.862 43.23-47.862 43.23 50.313-6.8755 69.477-3.0879 43.23 20.071 43.23 20.071-30.581 18.806-41.686 30.879-15.439 37.054-15.439 37.054l43.23-7.7197z" stroke="#000" stroke-linecap="round"/>
 <path d="m260.96 468.63s-138.92-102.08-204.53-29.892-18.291 127.2 55.065 160.48c71.672 34.36 193.51-29.892 193.51-29.892" fill="#ffb380" stroke="#000" stroke-linecap="round" stroke-width="1.8437"/>
 <path d="m448.1 714.2s17.634 17.447 37.554 17.959 47.275-17.512 47.275-17.512l185.21 100.99s8.169 115.15-6.5348 136.99c-13.995 20.789-507.21 9.376-507.21 9.376l-1.33-78.241 245.04-169.56z" fill="#04a" stroke="#000" stroke-linecap="round" stroke-width="1.7485"/>
 <path d="m82.7 272.55s44.874-15.318 74.859-11.49c28.865 3.6855 54.975 41.362 54.975 41.362l10.527-35.617s-29.17-20.907-67.841-26.426-73.861 16.633-73.861 16.633l1.3407 15.537z" stroke="#000" stroke-linecap="round" stroke-width="2.3216"/>
 <path d="m436.72 265.32s-46.114-14.135-79.345-9.9456-70.001 37.215-70.001 37.215l0.57414-32.243s37.752-20.625 71.906-22.875c33.16-2.184 81.342 8.9428 81.342 8.9428l-4.4768 18.905z" stroke="#000" stroke-linecap="round" stroke-width="2.2238"/>
 <path d="m80.464 420.87c-8.71 4.0911-16.813 9.9336-24.031 17.875-65.612 72.185-18.294 127.19 55.062 160.47 1.4011 0.6717 2.8431 1.2774 4.2812 1.875 0 0-43.712-50.883-47.938-93.498s12.625-86.721 12.625-86.721z" opacity=".12134" stroke="#000" stroke-linecap="round"/>
 <path d="m473.67 595.1 35.006-44.851s-7.1043 49.884-11.486 68.918c-4.2924 18.645-38.835 72.746-38.835 72.746l15.315-96.813z" opacity=".11715" stroke="#000" stroke-linecap="round"/>
 <path d="m105.59 300.91c-18.973 12.024-31.562 33.219-31.562 57.344 0 20.79 13.71 42.653 28.438 55.094l6.8902-1.4689s-22.521-34.729-23.954-53.5c-1.8154-23.782 17.511-52.301 20.188-57.469z" opacity=".12134" stroke="#000" stroke-linecap="round" stroke-width="2"/>
 <path d="m328.59 281.57c-25.684 16.277-42.726 44.969-42.726 77.626 0 28.143 18.559 57.739 38.497 74.581l12.609 6.763s-35.259-29.572-41.177-78.438c-6.6691-55.061 29.175-73.534 32.798-80.531z" opacity=".12134" stroke="#000" stroke-linecap="round" stroke-width="2.7074"/>
 <path d="m256.58 635.01s42.756-34.068 69.617-37.129 80.447 21.659 80.447 21.659v0.77353s-58.811-19.561-85.861-16.244-64.203 30.941-64.203 30.941z" stroke="#000"/>
 <path d="m298.58 725.55s15.338-11.119 21.659-16.631 15.471-20.112 15.471-20.112 13.754 9.773 23.206 12.376 33.648 3.0941 33.648 3.0941-27.772 16.213-40 18.197-34.023 5.4418-42.814 5.4011-11.169-2.3264-11.169-2.3264z" fill="#483737" opacity=".9" stroke="#000" stroke-width="2"/>
 <path d="m291.81 647.15s19.037 5.1521 30.63 3.2818 36.1-16.409 36.1-16.409-28.284 34.085-32.818 33.912c-4.1494-0.15829-33.912-20.785-33.912-20.785z" fill="#483737" opacity=".9" stroke="#000" stroke-width="2"/>
 <path transform="matrix(2.3955 0 0 2.0741 -480.21 -744.7)" d="m329.52 660.96-3.0941 4.2544h6.575l3.8676-2.7073-7.3485-1.5471z" fill="#fff" filter="url(#a)"/>
 <path d="m275.61 640.53s29.455 10.514 43.245 8.737 47.966-19.917 47.966-19.917-34.35 14.302-47.981 16.171-43.23-4.9911-43.23-4.9911z" stroke="#000" stroke-width="2.2038"/>
 <g transform="matrix(.9596 0 0 .75307 -207.97 302.96)" stroke="#000" stroke-linecap="round">
  <path d="m256.66 599.98c34.065-7.0048 62.009-4.0837 94.039-17.794 25.331-13.055 45.75-33.35 65.711-53.087 7.2762-11.746 11.261 8.3943 16.106 13.874 7.2249 14.65 16.016 30.328 14.008 47.127-5.3742 19.278-19.06 34.955-31.454 50.348-5.9118 9.4373-15.754 14.291-25.816 18.445-28.293 12.749-58.748 22.632-90.251 21.86-12.199-3e-3 -24.411-0.7812-36.48-2.5449 15.104-8.9796 31.208-18.716 40.294-34.085 8.4653-19.146-31.616-40.56-46.157-44.143z" stroke-width="1.2983"/>
  <path d="m420.76 525.47c-1.3201 5e-3 -2.7619 1.0589-4.3535 3.6284-19.961 19.736-40.384 40.027-65.714 53.082-31.986 13.692-56.574 9.6818-90.595 16.677l-2.1537 0.0335c10.668 4.3726 37.068 21.051 42.743 30.978 15.778-3.6939 34.594-7.195 49.525-13.453 32-15.42 61.842-34.659 91.493-54.023-2.6988-6.6665-6.0893-13.137-9.187-19.419-3.7855-4.2813-7.0432-17.522-11.758-17.504l7e-5 9e-5z" fill="#fff" stroke-width="1.2983"/>
  <g transform="matrix(1.3258 0 0 1.2284 -155.35 -152.9)" fill="#f00" stroke-width="2">
   <path d="m368.01 669.37s9.6572-37.196 21.471-38.449 17.976 20.473 17.976 20.473l-9.9867 7.49-29.461 10.486z"/>
   <path d="m383.99 667.88s9.6572-37.196 21.471-38.449 17.976 20.473 17.976 20.473l-9.9867 7.49-29.461 10.486z"/>
  </g>
  <path d="m419.86 634.52c-24.096 11.119-61.319 27.308-82.443 31.379-17.334 3.3405-40.595 3.1678-58.79 2.251-5.2542 3.5958-10.751 6.8582-16.112 10.045 12.069 1.7637 24.275 2.5501 36.474 2.5533 31.504 0.7726 61.966-9.0884 90.259-21.838 10.061-4.1533 19.901-9.0071 25.813-18.444 1.5842-1.9676 3.1928-3.9628 4.7992-5.9466z" fill="#fff" stroke-width="1.2983"/>
 </g>
</svg>
