<svg version="1.2" xmlns="http://www.w3.org/2000/svg" viewBox="0 0 585 213" width="585" height="213">
	<title>9-svg</title>
	<style>
		.s0 { fill: #000000 } 
	</style>
	<g id="layer1">
		<g id="Layer">
			<g id="Layer">
				<path id="Layer" fill-rule="evenodd" class="s0" d="m186.9 65.6l3.7 0.4 3.1 1.4 82.9 41.4 0.4 3.3v3.5l-79.3 40.3-3.1 1.7-3.2 1.5-3.5 1.1h-156.8l-3.6-0.2-3.6-1-3.3-1.4-2.9-2q-5.5-4.7-8.6-11.2-1.6-3.3-2.6-6.5-1.2-3.4-2.1-6.9l-0.8-3.7-0.7-3.7-0.5-3.6-0.3-3.4v-3.4-3.4l0.3-3.6 0.4-3.6q0.4-3.5 1.1-7.1 0.7-3.4 1.9-6.8l1.2-3.4 1.6-3.4 1.7-3.2 1.8-2.9 2.1-2.7 2.5-2.5 3-2.1 3.4-1.8 3.4-0.9 3.5-0.2zm393.6-63.5l2.7 0.9v167.5 39.2l-0.7 2.9h-277.8l-2-1.6v-208.9zm-463.8 95.8l0.9 3.6 0.2 3.3v7.4l-0.2 3.7-0.3 3.3-0.4 3.5-0.7 3.5v2.9h85.5l2.2-1.7q0.9-3.3 1.3-6.8 0.5-3.6 0.5-7.3 0.1-3.4-0.4-6.9l-0.6-3.5-0.8-3.7-2.7-1.3zm93.4-10.7l1 3.4 0.8 3.5 0.7 3.6 0.4 3.4 0.3 3.5 0.2 7.4q-0.1 14.5-5.1 28.1l1.5 0.2 31.6-16.3 1-0.5 2.1-3 0.9-3.3 0.3-3.6v-3.7l-0.5-3.5-1.2-3.2-2.7-2.5-31.8-15.9zm-186.2-11.1l-2.9 2.1-2.3 2.6-1.9 2.9-1.7 3.2-1.4 3.4-1 3.3-0.7 3.5-0.5 3.7-0.5 7.4-0.1 6.8 0.1 3.5 0.5 7.2q0.4 3.6 1.4 7.1l1.1 3.3 1.5 3.5 1.7 3.1 2 2.8 2.4 2.5 3 1.9 3.6 1.2 0.5 0.1 3.6-1.1 3.1-1.8 2.5-2.4 2-2.8 1.8-3.1 1.6-3.4 1.1-3.2 1-3.4 0.8-3.6 0.6-3.7 0.5-3.7 0.3-3.5 0.1-3.3-0.2-3.1-0.3-3.5-0.6-4-0.7-3.7-0.9-3.5q-0.9-3.4-2.3-6.7l-1.6-3.3-1.9-3-2.2-2.6-2.7-2.2-3.3-1.6-3.7-0.2zm20.4-1.7l2.3 2.6 1.9 3 1.7 3.4 1.3 3.3q1.2 3.4 1.9 6.8l1.2 7 0.4 3.7q1.9 17.8-3.8 35.1l-0.2 0.7-1.3 3.4-1.7 3.1-2.1 2.9-0.4 1.8h21.4l3.5-0.4 3.3-1.4 2.9-2.1 2.5-2.7 2.1-3 1.6-3.2 1.2-3.3 0.8-3.3 0.7-3.5 0.4-3.7 0.4-4 0.3-7-0.1-6.7-0.2-3.6-0.3-3.7-0.5-3.4-0.8-3.5-1.1-3.5-1.4-3.5-1.7-3.2-2-2.8-2.4-2.4-3-1.8-3.6-0.9-3.9-0.2zm44.9 5.9l1.7 3.1 1.3 3.2 1 3.6 0.8 3.5q0.6 3.6 1 7.1l0.5 7v3.7l-0.2 7.3q-0.2 3.4-0.6 6.8l-0.8 3.5-1 3.4-0.7 1.9q-0.9 3.4-2 6.8l-1.3 3.4-1.7 3.2-2.3 2.8 2.3 0.5h3.5l3.6-1 3-1.8 2.6-2.6q2.1-2.8 3.7-6 3.4-6.4 4.4-13.5l0.4-3.8 0.4-7.4v-6.6l-0.4-7.2-0.4-3.5-0.8-3.4-1.1-3.4q-1.4-3.6-3.3-6.9l-1.9-3.1-1.9-2.5-2.5-2.2-3.3-1.4-4-0.5h-3.6zm24.1 56.4l-1.1 3.6-1.3 3.3-1.5 3-1.8 3.1 0.8 1.5h32.1 46.3l3.6-1.1 3.1-1.8 2.5-2.5 2-2.7 1.8-3.1 1.2-3.3zm-6.7-62.3l2.5 2.8 1.9 2.9q1.5 3.4 2.7 6.7l2 2h85.5l-2.9-6.4-2.2-2.8q-2.9-2.1-5.7-4.1l-3.5-1.1h-78.5zm378.7 26.7l-1.2 1.1 85.6 85.7 2.3 1.9v-163.8l-1.4-0.5zm-171.6 87.4v1.6l85.7-85.6 2.1-2.5-85.4-75.6-2.4-1.8zm129.4-50.8l-2.7-2.1-29.1-26.1-2.6 1.3-90.1 91.2-0.4 0.4h249.4l-90.2-91.2-2.5-2.1zm-124.9-125.6l123.4 107.9h2.6l123.4-107.9h-249.3z"/>
			</g>
		</g>
	</g>
</svg>